# Blender 4.2.7 LTS
# www.blender.org
mtllib Гришаев АСУб-23-2 Вариант 3.mtl
o Base
v 0.000000 -0.074032 -0.992512
v 0.000000 0.211854 -0.992512
v 0.195090 -0.074032 -0.973297
v 0.195090 0.211854 -0.973297
v 0.382683 -0.074032 -0.916391
v 0.382683 0.211854 -0.916391
v 0.555570 -0.074032 -0.823981
v 0.555570 0.211854 -0.823981
v 0.707107 -0.074032 -0.699618
v 0.707107 0.211854 -0.699618
v 0.831470 -0.074032 -0.548082
v 0.831470 0.211854 -0.548082
v 0.923880 -0.074032 -0.375195
v 0.923880 0.211854 -0.375195
v 0.980785 -0.074032 -0.187602
v 0.980785 0.211854 -0.187602
v 1.000000 -0.074032 0.007488
v 1.000000 0.211854 0.007488
v 0.980785 -0.074032 0.202579
v 0.980785 0.211854 0.202579
v 0.923880 -0.074032 0.390172
v 0.923880 0.211854 0.390172
v 0.831470 -0.074032 0.563059
v 0.831470 0.211854 0.563059
v 0.707107 -0.074032 0.714595
v 0.707107 0.211854 0.714595
v 0.555570 -0.074032 0.838958
v 0.555570 0.211854 0.838958
v 0.382683 -0.074032 0.931368
v 0.382683 0.211854 0.931368
v 0.195090 -0.074032 0.988274
v 0.195090 0.211854 0.988274
v 0.000000 -0.074032 1.007488
v 0.000000 0.211854 1.007488
v 0.000000 0.174774 -0.996570
v 0.000000 0.780797 -0.996570
v 0.195090 0.174774 -0.979547
v 0.195090 0.780797 -0.979547
v 0.382683 0.174774 -0.929133
v 0.382683 0.780797 -0.929133
v 0.555570 0.174774 -0.847265
v 0.555570 0.780797 -0.847265
v 0.707107 0.174774 -0.737089
v 0.707107 0.780797 -0.737089
v 0.831470 0.174774 -0.602839
v 0.831470 0.780797 -0.602839
v 0.923880 0.174774 -0.449674
v 0.923880 0.780797 -0.449674
v 0.980785 0.174774 -0.283481
v 0.980785 0.780797 -0.283481
v 1.000000 0.174774 -0.110645
v 1.000000 0.780797 -0.110645
v 0.980785 0.174774 0.062190
v 0.980785 0.780797 0.062190
v 0.923880 0.174774 0.228383
v 0.923880 0.780797 0.228383
v 0.831470 0.174774 0.381548
v 0.831470 0.780797 0.381548
v 0.707107 0.174774 0.515798
v 0.707107 0.780797 0.515798
v 0.555570 0.174774 0.625974
v 0.555570 0.780797 0.625974
v 0.382683 0.174774 0.707842
v 0.382683 0.780797 0.707842
v 0.195090 0.174774 0.758257
v 0.195090 0.780797 0.758257
v 0.000000 0.174774 0.775279
v 0.000000 0.780797 0.775279
v 0.000000 -0.062223 -0.996570
v 0.195090 -0.062223 -0.979547
v 0.382683 -0.062223 -0.929133
v 0.555570 -0.062223 -0.847265
v 0.707107 -0.062223 -0.737089
v 0.831470 -0.062223 -0.602839
v 0.923880 -0.062223 -0.449674
v 0.980785 -0.062223 -0.283481
v 1.000000 -0.062223 -0.110645
v 0.980785 -0.062223 0.062190
v 0.923880 -0.062223 0.228383
v 0.831470 -0.062223 0.381548
v 0.707107 -0.062223 0.515798
v 0.555570 -0.062223 0.625974
v 0.382683 -0.062223 0.707842
v 0.195090 -0.062223 0.758257
v 0.000000 -0.062223 0.775279
v 0.488100 -0.069953 0.957367
v 0.488100 0.636994 0.957367
v 0.488100 -0.069953 0.644199
v 0.488100 0.636994 0.644199
v 0.000000 -0.069953 0.644199
v 0.000000 0.636994 0.644199
v 0.000000 -0.069953 0.957367
v 0.000000 0.636994 0.957367
v 0.488100 0.312060 0.644199
v 0.488100 0.312060 0.957367
v 0.000000 0.312060 0.957367
v 0.000000 0.312060 0.644199
v 0.488100 0.312060 0.957367
v 0.488100 -0.069953 0.957367
v 0.000000 -0.069953 0.957367
v 0.000000 0.312060 0.957367
v 0.488100 0.312060 1.020667
v 0.488100 -0.069953 1.020667
v 0.000000 -0.069953 1.020667
v 0.000000 0.312060 1.020667
v 0.488100 0.496920 0.644199
v 0.488100 0.496920 0.957367
v 0.000000 0.496920 0.957367
v 0.000000 0.496920 0.644199
v 0.488100 0.496920 1.315014
v 0.488100 0.444991 1.315014
v 0.000000 0.496920 1.315014
v 0.000000 0.444991 1.315014
v 0.488100 0.496920 1.018085
v 0.488100 0.312060 1.018085
v 0.000000 0.312060 1.018085
v 0.000000 0.496920 1.018085
v -0.195090 -0.074032 -0.973297
v -0.195090 0.211854 -0.973297
v -0.382683 -0.074032 -0.916391
v -0.382683 0.211854 -0.916391
v -0.555570 -0.074032 -0.823981
v -0.555570 0.211854 -0.823981
v -0.707107 -0.074032 -0.699618
v -0.707107 0.211854 -0.699618
v -0.831470 -0.074032 -0.548082
v -0.831470 0.211854 -0.548082
v -0.923880 -0.074032 -0.375195
v -0.923880 0.211854 -0.375195
v -0.980785 -0.074032 -0.187602
v -0.980785 0.211854 -0.187602
v -1.000000 -0.074032 0.007488
v -1.000000 0.211854 0.007488
v -0.980785 -0.074032 0.202579
v -0.980785 0.211854 0.202579
v -0.923880 -0.074032 0.390172
v -0.923880 0.211854 0.390172
v -0.831470 -0.074032 0.563059
v -0.831470 0.211854 0.563059
v -0.707107 -0.074032 0.714595
v -0.707107 0.211854 0.714595
v -0.555570 -0.074032 0.838958
v -0.555570 0.211854 0.838958
v -0.382683 -0.074032 0.931368
v -0.382683 0.211854 0.931368
v -0.195090 -0.074032 0.988274
v -0.195090 0.211854 0.988274
v -0.195090 0.174774 -0.979547
v -0.195090 0.780797 -0.979547
v -0.382683 0.174774 -0.929133
v -0.382683 0.780797 -0.929133
v -0.555570 0.174774 -0.847265
v -0.555570 0.780797 -0.847265
v -0.707107 0.174774 -0.737089
v -0.707107 0.780797 -0.737089
v -0.831470 0.174774 -0.602839
v -0.831470 0.780797 -0.602839
v -0.923880 0.174774 -0.449674
v -0.923880 0.780797 -0.449674
v -0.980785 0.174774 -0.283481
v -0.980785 0.780797 -0.283481
v -1.000000 0.174774 -0.110645
v -1.000000 0.780797 -0.110645
v -0.980785 0.174774 0.062190
v -0.980785 0.780797 0.062190
v -0.923880 0.174774 0.228383
v -0.923880 0.780797 0.228383
v -0.831470 0.174774 0.381548
v -0.831470 0.780797 0.381548
v -0.707107 0.174774 0.515798
v -0.707107 0.780797 0.515798
v -0.555570 0.174774 0.625974
v -0.555570 0.780797 0.625974
v -0.382683 0.174774 0.707842
v -0.382683 0.780797 0.707842
v -0.195090 0.174774 0.758257
v -0.195090 0.780797 0.758257
v -0.195090 -0.062223 -0.979547
v -0.382683 -0.062223 -0.929133
v -0.555570 -0.062223 -0.847265
v -0.707107 -0.062223 -0.737089
v -0.831470 -0.062223 -0.602839
v -0.923880 -0.062223 -0.449674
v -0.980785 -0.062223 -0.283481
v -1.000000 -0.062223 -0.110645
v -0.980785 -0.062223 0.062190
v -0.923880 -0.062223 0.228383
v -0.831470 -0.062223 0.381548
v -0.707107 -0.062223 0.515798
v -0.555570 -0.062223 0.625974
v -0.382683 -0.062223 0.707842
v -0.195090 -0.062223 0.758257
v -0.488100 -0.069953 0.957367
v -0.488100 0.636994 0.957367
v -0.488100 -0.069953 0.644199
v -0.488100 0.636994 0.644199
v -0.488100 0.312060 0.644199
v -0.488100 0.312060 0.957367
v -0.488100 0.312060 0.957367
v -0.488100 -0.069953 0.957367
v -0.488100 0.312060 1.020667
v -0.488100 -0.069953 1.020667
v -0.488100 0.496920 0.644199
v -0.488100 0.496920 0.957367
v -0.488100 0.496920 1.315014
v -0.488100 0.444991 1.315014
v -0.488100 0.496920 1.018085
v -0.488100 0.312060 1.018085
vn 0.2903 -0.0000 -0.9569
vn 0.4714 -0.0000 -0.8819
vn 0.6344 -0.0000 -0.7730
vn 0.7730 -0.0000 -0.6344
vn 0.8819 -0.0000 -0.4714
vn 0.9569 -0.0000 -0.2903
vn 0.9952 -0.0000 -0.0980
vn 0.9952 -0.0000 0.0980
vn 0.9569 -0.0000 0.2903
vn 0.8819 -0.0000 0.4714
vn 0.7730 -0.0000 0.6344
vn 0.6344 -0.0000 0.7730
vn 0.4714 -0.0000 0.8819
vn 0.2903 -0.0000 0.9569
vn -0.0000 1.0000 -0.0000
vn -0.0000 -1.0000 -0.0000
vn 0.0869 -0.0000 -0.9962
vn 0.2595 -0.0000 -0.9657
vn 0.4280 -0.0000 -0.9038
vn 0.5881 -0.0000 -0.8088
vn 0.7336 -0.0000 -0.6796
vn 0.8562 -0.0000 -0.5166
vn 0.9461 -0.0000 -0.3239
vn 0.9939 -0.0000 -0.1105
vn 0.9939 -0.0000 0.1105
vn 0.9461 -0.0000 0.3239
vn 0.8562 -0.0000 0.5166
vn 0.7336 -0.0000 0.6796
vn 0.5881 -0.0000 0.8088
vn 0.4280 -0.0000 0.9038
vn 0.2595 -0.0000 0.9657
vn 0.0869 -0.0000 0.9962
vn -0.0000 -0.0000 -1.0000
vn 1.0000 -0.0000 -0.0000
vn -0.0000 -0.0000 1.0000
vn -1.0000 -0.0000 -0.0000
vn -0.0000 -0.9127 0.4086
vn -0.2903 -0.0000 -0.9569
vn -0.4714 -0.0000 -0.8819
vn -0.6344 -0.0000 -0.7730
vn -0.7730 -0.0000 -0.6344
vn -0.8819 -0.0000 -0.4714
vn -0.9569 -0.0000 -0.2903
vn -0.9952 -0.0000 -0.0980
vn -0.9952 -0.0000 0.0980
vn -0.9569 -0.0000 0.2903
vn -0.8819 -0.0000 0.4714
vn -0.7730 -0.0000 0.6344
vn -0.6344 -0.0000 0.7730
vn -0.4714 -0.0000 0.8819
vn -0.2903 -0.0000 0.9569
vn -0.0869 -0.0000 -0.9962
vn -0.2595 -0.0000 -0.9657
vn -0.4280 -0.0000 -0.9038
vn -0.5881 -0.0000 -0.8088
vn -0.7336 -0.0000 -0.6796
vn -0.8562 -0.0000 -0.5166
vn -0.9461 -0.0000 -0.3239
vn -0.9939 -0.0000 -0.1105
vn -0.9939 -0.0000 0.1105
vn -0.9461 -0.0000 0.3239
vn -0.8562 -0.0000 0.5166
vn -0.7336 -0.0000 0.6796
vn -0.5881 -0.0000 0.8088
vn -0.4280 -0.0000 0.9038
vn -0.2595 -0.0000 0.9657
vn -0.0869 -0.0000 0.9962
vt 0.968750 0.500000
vt 0.968750 1.000000
vt 0.937500 1.000000
vt 0.937500 0.500000
vt 0.906250 1.000000
vt 0.906250 0.500000
vt 0.875000 1.000000
vt 0.875000 0.500000
vt 0.843750 1.000000
vt 0.843750 0.500000
vt 0.812500 1.000000
vt 0.812500 0.500000
vt 0.781250 1.000000
vt 0.781250 0.500000
vt 0.750000 1.000000
vt 0.750000 0.500000
vt 0.718750 1.000000
vt 0.718750 0.500000
vt 0.687500 1.000000
vt 0.687500 0.500000
vt 0.656250 1.000000
vt 0.656250 0.500000
vt 0.625000 1.000000
vt 0.625000 0.500000
vt 0.593750 1.000000
vt 0.593750 0.500000
vt 0.562500 1.000000
vt 0.562500 0.500000
vt 0.531250 1.000000
vt 0.531250 0.500000
vt 0.000000 0.000000
vt 1.000000 0.500000
vt 1.000000 1.000000
vt 0.500000 1.000000
vt 0.500000 0.500000
vt 0.575465 0.375000
vt 0.625000 0.375000
vt 0.575465 0.500000
vt 0.625000 0.750000
vt 0.575465 0.750000
vt 0.250000 0.500000
vt 0.375000 0.500000
vt 0.375000 0.750000
vt 0.250000 0.750000
vt 0.750000 0.750000
vt 0.625000 0.875000
vt 0.575465 0.875000
vt 0.510092 0.750000
vt 0.510092 0.500000
vt 0.375000 0.375000
vt 0.510092 0.375000
vt 0.510092 0.875000
vt 0.375000 0.875000
s 0
f 3/1/1 4/2/1 6/3/1 5/4/1
f 5/4/2 6/3/2 8/5/2 7/6/2
f 7/6/3 8/5/3 10/7/3 9/8/3
f 9/8/4 10/7/4 12/9/4 11/10/4
f 11/10/5 12/9/5 14/11/5 13/12/5
f 13/12/6 14/11/6 16/13/6 15/14/6
f 15/14/7 16/13/7 18/15/7 17/16/7
f 17/16/8 18/15/8 20/17/8 19/18/8
f 19/18/9 20/17/9 22/19/9 21/20/9
f 21/20/10 22/19/10 24/21/10 23/22/10
f 23/22/11 24/21/11 26/23/11 25/24/11
f 25/24/12 26/23/12 28/25/12 27/26/12
f 27/26/13 28/25/13 30/27/13 29/28/13
f 29/28/14 30/27/14 32/29/14 31/30/14
f 4/2/15 2/31/15 34/31/15 32/29/15 30/27/15 28/25/15 26/23/15 24/21/15 22/19/15 20/17/15 18/15/15 16/13/15 14/11/15 12/9/15 10/7/15 8/5/15 6/3/15
f 1/31/16 3/1/16 5/4/16 7/6/16 9/8/16 11/10/16 13/12/16 15/14/16 17/16/16 19/18/16 21/20/16 23/22/16 25/24/16 27/26/16 29/28/16 31/30/16 33/31/16
f 35/32/17 36/33/17 38/2/17 37/1/17
f 37/1/18 38/2/18 40/3/18 39/4/18
f 39/4/19 40/3/19 42/5/19 41/6/19
f 41/6/20 42/5/20 44/7/20 43/8/20
f 43/8/21 44/7/21 46/9/21 45/10/21
f 45/10/22 46/9/22 48/11/22 47/12/22
f 47/12/23 48/11/23 50/13/23 49/14/23
f 49/14/24 50/13/24 52/15/24 51/16/24
f 51/16/25 52/15/25 54/17/25 53/18/25
f 53/18/26 54/17/26 56/19/26 55/20/26
f 55/20/27 56/19/27 58/21/27 57/22/27
f 57/22/28 58/21/28 60/23/28 59/24/28
f 59/24/29 60/23/29 62/25/29 61/26/29
f 61/26/30 62/25/30 64/27/30 63/28/30
f 63/28/31 64/27/31 66/29/31 65/30/31
f 65/30/32 66/29/32 68/34/32 67/35/32
f 38/2/15 36/33/15 68/34/15 66/29/15 64/27/15 62/25/15 60/23/15 58/21/15 56/19/15 54/17/15 52/15/15 50/13/15 48/11/15 46/9/15 44/7/15 42/5/15 40/3/15
f 51/16/25 53/18/25 78/18/25 77/16/25
f 69/32/16 70/1/16 71/4/16 72/6/16 73/8/16 74/10/16 75/12/16 76/14/16 77/16/16 78/18/16 79/20/16 80/22/16 81/24/16 82/26/16 83/28/16 84/30/16 85/35/16
f 43/8/21 45/10/21 74/10/21 73/8/21
f 61/26/30 63/28/30 83/28/30 82/26/30
f 35/32/17 37/1/17 70/1/17 69/32/17
f 53/18/26 55/20/26 79/20/26 78/18/26
f 45/10/22 47/12/22 75/12/22 74/10/22
f 63/28/31 65/30/31 84/30/31 83/28/31
f 37/1/18 39/4/18 71/4/18 70/1/18
f 55/20/27 57/22/27 80/22/27 79/20/27
f 47/12/23 49/14/23 76/14/23 75/12/23
f 65/30/32 67/35/32 85/35/32 84/30/32
f 39/4/19 41/6/19 72/6/19 71/4/19
f 57/22/28 59/24/28 81/24/28 80/22/28
f 49/14/24 51/16/24 77/16/24 76/14/24
f 41/6/20 43/8/20 73/8/20 72/6/20
f 59/24/29 61/26/29 82/26/29 81/24/29
f 109/36/33 91/37/33 89/24/33 106/38/33
f 106/38/34 89/24/34 87/39/34 107/40/34
f 90/41/16 88/42/16 86/43/16 92/44/16
f 89/24/15 91/16/15 93/45/15 87/39/15
f 107/40/35 87/39/35 93/46/35 108/47/35
f 86/43/15 95/48/15 98/48/15 99/43/15
f 88/42/34 94/49/34 95/48/34 86/43/34
f 90/50/33 97/51/33 94/49/33 88/42/33
f 98/48/15 101/52/15 105/52/15 102/48/15
f 92/44/15 86/43/15 99/43/15 100/44/15
f 95/48/15 96/52/15 101/52/15 98/48/15
f 96/31/15 92/31/15 100/31/15 101/31/15
f 103/43/35 102/48/35 105/52/35 104/53/35
f 100/44/16 99/43/16 103/43/16 104/44/16
f 101/31/36 100/31/36 104/31/36 105/31/36
f 99/43/34 98/48/34 102/48/34 103/43/34
f 115/48/34 114/40/34 110/40/34 111/48/34
f 94/49/34 106/38/34 107/40/34 95/48/34
f 97/51/33 109/36/33 106/38/33 94/49/33
f 111/48/35 110/40/35 112/47/35 113/52/35
f 116/52/37 115/48/37 111/48/37 113/52/37
f 117/31/36 116/31/36 113/31/36 112/31/36
f 114/40/15 117/47/15 112/47/15 110/40/15
f 107/40/15 108/47/15 117/47/15 114/40/15
f 108/31/36 96/31/36 116/31/36 117/31/36
f 96/52/16 95/48/16 115/48/16 116/52/16
f 95/48/34 107/40/34 114/40/34 115/48/34
f 118/1/38 120/4/38 121/3/38 119/2/38
f 120/4/39 122/6/39 123/5/39 121/3/39
f 122/6/40 124/8/40 125/7/40 123/5/40
f 124/8/41 126/10/41 127/9/41 125/7/41
f 126/10/42 128/12/42 129/11/42 127/9/42
f 128/12/43 130/14/43 131/13/43 129/11/43
f 130/14/44 132/16/44 133/15/44 131/13/44
f 132/16/45 134/18/45 135/17/45 133/15/45
f 134/18/46 136/20/46 137/19/46 135/17/46
f 136/20/47 138/22/47 139/21/47 137/19/47
f 138/22/48 140/24/48 141/23/48 139/21/48
f 140/24/49 142/26/49 143/25/49 141/23/49
f 142/26/50 144/28/50 145/27/50 143/25/50
f 144/28/51 146/30/51 147/29/51 145/27/51
f 119/2/15 121/3/15 123/5/15 125/7/15 127/9/15 129/11/15 131/13/15 133/15/15 135/17/15 137/19/15 139/21/15 141/23/15 143/25/15 145/27/15 147/29/15 34/31/15 2/31/15
f 1/31/16 33/31/16 146/30/16 144/28/16 142/26/16 140/24/16 138/22/16 136/20/16 134/18/16 132/16/16 130/14/16 128/12/16 126/10/16 124/8/16 122/6/16 120/4/16 118/1/16
f 35/32/52 148/1/52 149/2/52 36/33/52
f 148/1/53 150/4/53 151/3/53 149/2/53
f 150/4/54 152/6/54 153/5/54 151/3/54
f 152/6/55 154/8/55 155/7/55 153/5/55
f 154/8/56 156/10/56 157/9/56 155/7/56
f 156/10/57 158/12/57 159/11/57 157/9/57
f 158/12/58 160/14/58 161/13/58 159/11/58
f 160/14/59 162/16/59 163/15/59 161/13/59
f 162/16/60 164/18/60 165/17/60 163/15/60
f 164/18/61 166/20/61 167/19/61 165/17/61
f 166/20/62 168/22/62 169/21/62 167/19/62
f 168/22/63 170/24/63 171/23/63 169/21/63
f 170/24/64 172/26/64 173/25/64 171/23/64
f 172/26/65 174/28/65 175/27/65 173/25/65
f 174/28/66 176/30/66 177/29/66 175/27/66
f 176/30/67 67/35/67 68/34/67 177/29/67
f 149/2/15 151/3/15 153/5/15 155/7/15 157/9/15 159/11/15 161/13/15 163/15/15 165/17/15 167/19/15 169/21/15 171/23/15 173/25/15 175/27/15 177/29/15 68/34/15 36/33/15
f 162/16/60 185/16/60 186/18/60 164/18/60
f 69/32/16 85/35/16 192/30/16 191/28/16 190/26/16 189/24/16 188/22/16 187/20/16 186/18/16 185/16/16 184/14/16 183/12/16 182/10/16 181/8/16 180/6/16 179/4/16 178/1/16
f 154/8/56 181/8/56 182/10/56 156/10/56
f 172/26/65 190/26/65 191/28/65 174/28/65
f 35/32/52 69/32/52 178/1/52 148/1/52
f 164/18/61 186/18/61 187/20/61 166/20/61
f 156/10/57 182/10/57 183/12/57 158/12/57
f 174/28/66 191/28/66 192/30/66 176/30/66
f 148/1/53 178/1/53 179/4/53 150/4/53
f 166/20/62 187/20/62 188/22/62 168/22/62
f 158/12/58 183/12/58 184/14/58 160/14/58
f 176/30/67 192/30/67 85/35/67 67/35/67
f 150/4/54 179/4/54 180/6/54 152/6/54
f 168/22/63 188/22/63 189/24/63 170/24/63
f 160/14/59 184/14/59 185/16/59 162/16/59
f 152/6/55 180/6/55 181/8/55 154/8/55
f 170/24/64 189/24/64 190/26/64 172/26/64
f 109/36/33 203/38/33 196/24/33 91/37/33
f 203/38/36 204/40/36 194/39/36 196/24/36
f 90/41/16 92/44/16 193/43/16 195/42/16
f 196/24/15 194/39/15 93/45/15 91/16/15
f 204/40/35 108/47/35 93/46/35 194/39/35
f 193/43/15 200/43/15 199/48/15 198/48/15
f 195/42/36 193/43/36 198/48/36 197/49/36
f 90/50/33 195/42/33 197/49/33 97/51/33
f 199/48/15 201/48/15 105/52/15 101/52/15
f 92/44/15 100/44/15 200/43/15 193/43/15
f 198/48/15 199/48/15 101/52/15 96/52/15
f 202/43/35 104/53/35 105/52/35 201/48/35
f 100/44/16 104/44/16 202/43/16 200/43/16
f 200/43/36 202/43/36 201/48/36 199/48/36
f 208/48/36 206/48/36 205/40/36 207/40/36
f 197/49/36 198/48/36 204/40/36 203/38/36
f 97/51/33 197/49/33 203/38/33 109/36/33
f 206/48/35 113/52/35 112/47/35 205/40/35
f 116/52/37 113/52/37 206/48/37 208/48/37
f 207/40/15 205/40/15 112/47/15 117/47/15
f 204/40/15 207/40/15 117/47/15 108/47/15
f 96/52/16 116/52/16 208/48/16 198/48/16
f 198/48/36 208/48/36 207/40/36 204/40/36
o XO1
v 0.000000 2.025663 -0.636484
v -0.000000 1.866949 1.998353
v 0.095807 2.018890 -0.636621
v 0.066726 1.862232 1.998257
v 0.187931 1.998831 -0.637026
v 0.130888 1.848262 1.997975
v 0.272834 1.966258 -0.637684
v 0.190020 1.825575 1.997517
v 0.347252 1.922421 -0.638570
v 0.241850 1.795044 1.996900
v 0.408325 1.869006 -0.639649
v 0.284385 1.757842 1.996149
v 0.453706 1.808064 -0.640880
v 0.315992 1.715399 1.995291
v 0.481652 1.741940 -0.642215
v 0.335455 1.669345 1.994361
v 0.491088 1.673172 -0.643605
v 0.342027 1.621451 1.993394
v 0.481652 1.604404 -0.644994
v 0.335455 1.573556 1.992426
v 0.453706 1.538280 -0.646329
v 0.315992 1.527502 1.991496
v 0.408325 1.477339 -0.647560
v 0.284385 1.485059 1.990638
v 0.347252 1.423923 -0.648639
v 0.241850 1.447857 1.989887
v 0.272834 1.380087 -0.649525
v 0.190020 1.417326 1.989270
v 0.187931 1.347513 -0.650183
v 0.130888 1.394639 1.988812
v 0.095807 1.327454 -0.650588
v 0.066726 1.380669 1.988530
v 0.000000 1.320681 -0.650725
v -0.000000 1.375952 1.988434
v -0.095807 1.327454 -0.650588
v -0.066726 1.380669 1.988530
v -0.187931 1.347513 -0.650183
v -0.130888 1.394639 1.988812
v -0.272834 1.380087 -0.649525
v -0.190020 1.417326 1.989270
v -0.347252 1.423923 -0.648639
v -0.241850 1.447857 1.989887
v -0.408325 1.477339 -0.647560
v -0.284385 1.485059 1.990638
v -0.453706 1.538280 -0.646329
v -0.315992 1.527502 1.991496
v -0.481652 1.604404 -0.644994
v -0.335455 1.573556 1.992426
v -0.491088 1.673172 -0.643605
v -0.342027 1.621451 1.993394
v -0.481652 1.741940 -0.642215
v -0.335455 1.669345 1.994361
v -0.453706 1.808064 -0.640880
v -0.315992 1.715399 1.995291
v -0.408325 1.869006 -0.639649
v -0.284385 1.757842 1.996149
v -0.347252 1.922421 -0.638570
v -0.241850 1.795044 1.996900
v -0.272834 1.966258 -0.637684
v -0.190020 1.825575 1.997517
v -0.187931 1.998831 -0.637026
v -0.130888 1.848262 1.997975
v -0.095807 2.018890 -0.636621
v -0.066726 1.862232 1.998257
v 0.095807 1.967169 1.923809
v 0.000000 1.973942 1.923946
v 0.187931 1.947110 1.923404
v 0.272834 1.914536 1.922746
v 0.347252 1.870699 1.921860
v 0.408325 1.817284 1.920781
v 0.453706 1.756343 1.919550
v 0.481652 1.690218 1.918214
v 0.491088 1.621451 1.916825
v 0.481652 1.552683 1.915436
v 0.453706 1.486558 1.914100
v 0.408325 1.425617 1.912869
v 0.347252 1.372202 1.911790
v 0.272834 1.328365 1.910905
v 0.187931 1.295791 1.910247
v 0.095807 1.275733 1.909842
v 0.000000 1.268960 1.909705
v -0.095807 1.275733 1.909842
v -0.187931 1.295791 1.910247
v -0.272834 1.328365 1.910905
v -0.347252 1.372202 1.911790
v -0.408325 1.425617 1.912869
v -0.453706 1.486558 1.914100
v -0.481652 1.552683 1.915436
v -0.491088 1.621451 1.916825
v -0.481652 1.690218 1.918214
v -0.453706 1.756343 1.919550
v -0.408325 1.817284 1.920781
v -0.347252 1.870699 1.921860
v -0.272834 1.914536 1.922746
v -0.187931 1.947110 1.923404
v -0.095807 1.967169 1.923809
v -1.000000 0.778571 0.914681
v -1.000000 1.780996 0.914681
v -1.000000 0.778571 -1.085319
v -1.000000 1.780996 -1.085319
v 1.000000 0.778571 0.914681
v 1.000000 1.780996 0.914681
v 1.000000 0.778571 -1.085319
v 1.000000 1.780996 -1.085319
v -1.000000 1.780996 -1.308460
v -1.000000 0.896705 -1.308460
v 1.000000 0.896705 -1.308460
v 1.000000 1.780996 -1.308460
vn 0.0705 0.9973 0.0201
vn 0.2128 0.9769 0.0197
vn 0.3583 0.9334 0.0189
vn 0.5076 0.8614 0.0174
vn 0.6584 0.7525 0.0152
vn 0.8021 0.5971 0.0121
vn 0.9211 0.3891 0.0079
vn 0.9907 0.1359 0.0027
vn 0.9907 -0.1359 -0.0027
vn 0.9211 -0.3891 -0.0079
vn 0.8021 -0.5971 -0.0121
vn 0.6584 -0.7525 -0.0152
vn 0.5076 -0.8614 -0.0174
vn 0.3583 -0.9334 -0.0189
vn 0.2128 -0.9769 -0.0197
vn 0.0705 -0.9973 -0.0201
vn -0.0705 -0.9973 -0.0201
vn -0.2128 -0.9769 -0.0197
vn -0.3583 -0.9334 -0.0189
vn -0.5076 -0.8614 -0.0174
vn -0.6584 -0.7525 -0.0152
vn -0.8021 -0.5971 -0.0121
vn -0.9211 -0.3891 -0.0079
vn -0.9907 -0.1359 -0.0027
vn -0.9907 0.1359 0.0027
vn -0.9211 0.3891 0.0079
vn -0.8021 0.5971 0.0121
vn -0.6584 0.7525 0.0152
vn -0.5076 0.8614 0.0174
vn -0.3583 0.9334 0.0189
vn -0.0000 -0.0202 0.9998
vn -0.2128 0.9769 0.0197
vn -0.0705 0.9973 0.0201
vn -0.0000 0.0202 -0.9998
vn 0.0415 0.5705 0.8203
vn 0.1236 0.5512 0.8252
vn 0.2030 0.5123 0.8344
vn 0.2773 0.4537 0.8469
vn 0.3435 0.3753 0.8609
vn 0.3979 0.2786 0.8741
vn 0.4367 0.1667 0.8841
vn 0.4565 0.0447 0.8886
vn 0.4554 -0.0804 0.8866
vn 0.4338 -0.2011 0.8783
vn 0.3938 -0.3107 0.8651
vn 0.3389 -0.4046 0.8494
vn 0.2730 -0.4802 0.8336
vn 0.1995 -0.5366 0.8199
vn 0.1214 -0.5737 0.8100
vn 0.0407 -0.5922 0.8048
vn -0.0407 -0.5922 0.8048
vn -0.1214 -0.5737 0.8100
vn -0.1995 -0.5366 0.8199
vn -0.2730 -0.4802 0.8336
vn -0.3389 -0.4046 0.8494
vn -0.3938 -0.3107 0.8651
vn -0.4338 -0.2011 0.8783
vn -0.4554 -0.0804 0.8866
vn -0.4565 0.0447 0.8886
vn -0.4367 0.1667 0.8841
vn -0.3979 0.2786 0.8741
vn -0.3435 0.3753 0.8609
vn -0.2773 0.4537 0.8469
vn -0.2030 0.5123 0.8344
vn -0.1236 0.5512 0.8252
vn -0.0415 0.5705 0.8203
vn -1.0000 -0.0000 -0.0000
vn 1.0000 -0.0000 -0.0000
vn -0.0000 -0.0000 1.0000
vn -0.0000 -1.0000 -0.0000
vn -0.0000 1.0000 -0.0000
vn -0.0000 -0.0000 -1.0000
vn -0.0000 -0.8838 -0.4679
vt 1.000000 0.500000
vt 1.000000 1.000000
vt 0.968750 1.000000
vt 0.968750 0.500000
vt 0.937500 1.000000
vt 0.937500 0.500000
vt 0.906250 1.000000
vt 0.906250 0.500000
vt 0.875000 1.000000
vt 0.875000 0.500000
vt 0.843750 1.000000
vt 0.843750 0.500000
vt 0.812500 1.000000
vt 0.812500 0.500000
vt 0.781250 1.000000
vt 0.781250 0.500000
vt 0.750000 1.000000
vt 0.750000 0.500000
vt 0.718750 1.000000
vt 0.718750 0.500000
vt 0.687500 1.000000
vt 0.687500 0.500000
vt 0.656250 1.000000
vt 0.656250 0.500000
vt 0.625000 1.000000
vt 0.625000 0.500000
vt 0.593750 1.000000
vt 0.593750 0.500000
vt 0.562500 1.000000
vt 0.562500 0.500000
vt 0.531250 1.000000
vt 0.531250 0.500000
vt 0.500000 1.000000
vt 0.500000 0.500000
vt 0.468750 1.000000
vt 0.468750 0.500000
vt 0.437500 1.000000
vt 0.437500 0.500000
vt 0.406250 1.000000
vt 0.406250 0.500000
vt 0.375000 1.000000
vt 0.375000 0.500000
vt 0.343750 1.000000
vt 0.343750 0.500000
vt 0.312500 1.000000
vt 0.312500 0.500000
vt 0.281250 1.000000
vt 0.281250 0.500000
vt 0.250000 1.000000
vt 0.250000 0.500000
vt 0.218750 1.000000
vt 0.218750 0.500000
vt 0.187500 1.000000
vt 0.187500 0.500000
vt 0.156250 1.000000
vt 0.156250 0.500000
vt 0.125000 1.000000
vt 0.125000 0.500000
vt 0.093750 1.000000
vt 0.093750 0.500000
vt 0.062500 1.000000
vt 0.062500 0.500000
vt 0.290952 0.455881
vt 0.250000 0.459914
vt 0.209048 0.455881
vt 0.169669 0.443936
vt 0.133378 0.424537
vt 0.101568 0.398432
vt 0.075463 0.366622
vt 0.056064 0.330331
vt 0.044119 0.290952
vt 0.040086 0.250000
vt 0.044119 0.209048
vt 0.056064 0.169669
vt 0.075463 0.133378
vt 0.101568 0.101568
vt 0.133378 0.075463
vt 0.169669 0.056064
vt 0.209048 0.044119
vt 0.250000 0.040086
vt 0.290952 0.044119
vt 0.330331 0.056064
vt 0.366622 0.075463
vt 0.398432 0.101568
vt 0.424537 0.133378
vt 0.443936 0.169669
vt 0.455881 0.209048
vt 0.459914 0.250000
vt 0.455881 0.290952
vt 0.443936 0.330331
vt 0.424537 0.366622
vt 0.398432 0.398432
vt 0.366622 0.424537
vt 0.330331 0.443936
vt 0.031250 1.000000
vt 0.031250 0.500000
vt 0.000000 1.000000
vt 0.000000 0.500000
vt 0.750000 0.490000
vt 0.796822 0.485388
vt 0.841844 0.471731
vt 0.883337 0.449553
vt 0.919706 0.419706
vt 0.949553 0.383337
vt 0.971731 0.341844
vt 0.985388 0.296822
vt 0.990000 0.250000
vt 0.985388 0.203178
vt 0.971731 0.158156
vt 0.949553 0.116663
vt 0.919706 0.080294
vt 0.883337 0.050447
vt 0.841844 0.028269
vt 0.796822 0.014612
vt 0.750000 0.010000
vt 0.703178 0.014612
vt 0.658156 0.028269
vt 0.616663 0.050447
vt 0.580294 0.080294
vt 0.550447 0.116663
vt 0.528269 0.158156
vt 0.514612 0.203178
vt 0.510000 0.250000
vt 0.514612 0.296822
vt 0.528269 0.341844
vt 0.550447 0.383337
vt 0.580294 0.419706
vt 0.616663 0.449553
vt 0.658156 0.471731
vt 0.703178 0.485388
vt 0.296822 0.485388
vt 0.250000 0.490000
vt 0.341844 0.471731
vt 0.383337 0.449553
vt 0.419706 0.419706
vt 0.449553 0.383337
vt 0.471731 0.341844
vt 0.485388 0.296822
vt 0.490000 0.250000
vt 0.485388 0.203178
vt 0.471731 0.158156
vt 0.449553 0.116663
vt 0.419706 0.080294
vt 0.383337 0.050447
vt 0.341844 0.028269
vt 0.296822 0.014612
vt 0.250000 0.010000
vt 0.203178 0.014612
vt 0.158156 0.028269
vt 0.116663 0.050447
vt 0.080294 0.080294
vt 0.050447 0.116663
vt 0.028269 0.158156
vt 0.014612 0.203178
vt 0.010000 0.250000
vt 0.014612 0.296822
vt 0.028269 0.341844
vt 0.050447 0.383337
vt 0.080294 0.419706
vt 0.116663 0.449553
vt 0.158156 0.471731
vt 0.203178 0.485388
vt 0.375000 0.000000
vt 0.625000 0.000000
vt 0.625000 0.250000
vt 0.375000 0.250000
vt 0.625000 0.750000
vt 0.375000 0.750000
vt 0.125000 0.750000
vt 0.875000 0.750000
s 0
f 209/54/68 274/55/68 273/56/68 211/57/68
f 211/57/69 273/56/69 275/58/69 213/59/69
f 213/59/70 275/58/70 276/60/70 215/61/70
f 215/61/71 276/60/71 277/62/71 217/63/71
f 217/63/72 277/62/72 278/64/72 219/65/72
f 219/65/73 278/64/73 279/66/73 221/67/73
f 221/67/74 279/66/74 280/68/74 223/69/74
f 223/69/75 280/68/75 281/70/75 225/71/75
f 225/71/76 281/70/76 282/72/76 227/73/76
f 227/73/77 282/72/77 283/74/77 229/75/77
f 229/75/78 283/74/78 284/76/78 231/77/78
f 231/77/79 284/76/79 285/78/79 233/79/79
f 233/79/80 285/78/80 286/80/80 235/81/80
f 235/81/81 286/80/81 287/82/81 237/83/81
f 237/83/82 287/82/82 288/84/82 239/85/82
f 239/85/83 288/84/83 289/86/83 241/87/83
f 241/87/84 289/86/84 290/88/84 243/89/84
f 243/89/85 290/88/85 291/90/85 245/91/85
f 245/91/86 291/90/86 292/92/86 247/93/86
f 247/93/87 292/92/87 293/94/87 249/95/87
f 249/95/88 293/94/88 294/96/88 251/97/88
f 251/97/89 294/96/89 295/98/89 253/99/89
f 253/99/90 295/98/90 296/100/90 255/101/90
f 255/101/91 296/100/91 297/102/91 257/103/91
f 257/103/92 297/102/92 298/104/92 259/105/92
f 259/105/93 298/104/93 299/106/93 261/107/93
f 261/107/94 299/106/94 300/108/94 263/109/94
f 263/109/95 300/108/95 301/110/95 265/111/95
f 265/111/96 301/110/96 302/112/96 267/113/96
f 267/113/97 302/112/97 303/114/97 269/115/97
f 212/116/98 210/117/98 272/118/98 270/119/98 268/120/98 266/121/98 264/122/98 262/123/98 260/124/98 258/125/98 256/126/98 254/127/98 252/128/98 250/129/98 248/130/98 246/131/98 244/132/98 242/133/98 240/134/98 238/135/98 236/136/98 234/137/98 232/138/98 230/139/98 228/140/98 226/141/98 224/142/98 222/143/98 220/144/98 218/145/98 216/146/98 214/147/98
f 269/115/99 303/114/99 304/148/99 271/149/99
f 271/149/100 304/148/100 274/150/100 209/151/100
f 209/152/101 211/153/101 213/154/101 215/155/101 217/156/101 219/157/101 221/158/101 223/159/101 225/160/101 227/161/101 229/162/101 231/163/101 233/164/101 235/165/101 237/166/101 239/167/101 241/168/101 243/169/101 245/170/101 247/171/101 249/172/101 251/173/101 253/174/101 255/175/101 257/176/101 259/177/101 261/178/101 263/179/101 265/180/101 267/181/101 269/182/101 271/183/101
f 210/117/102 212/116/102 273/184/102 274/185/102
f 212/116/103 214/147/103 275/186/103 273/184/103
f 214/147/104 216/146/104 276/187/104 275/186/104
f 216/146/105 218/145/105 277/188/105 276/187/105
f 218/145/106 220/144/106 278/189/106 277/188/106
f 220/144/107 222/143/107 279/190/107 278/189/107
f 222/143/108 224/142/108 280/191/108 279/190/108
f 224/142/109 226/141/109 281/192/109 280/191/109
f 226/141/110 228/140/110 282/193/110 281/192/110
f 228/140/111 230/139/111 283/194/111 282/193/111
f 230/139/112 232/138/112 284/195/112 283/194/112
f 232/138/113 234/137/113 285/196/113 284/195/113
f 234/137/114 236/136/114 286/197/114 285/196/114
f 236/136/115 238/135/115 287/198/115 286/197/115
f 238/135/116 240/134/116 288/199/116 287/198/116
f 240/134/117 242/133/117 289/200/117 288/199/117
f 242/133/118 244/132/118 290/201/118 289/200/118
f 244/132/119 246/131/119 291/202/119 290/201/119
f 246/131/120 248/130/120 292/203/120 291/202/120
f 248/130/121 250/129/121 293/204/121 292/203/121
f 250/129/122 252/128/122 294/205/122 293/204/122
f 252/128/123 254/127/123 295/206/123 294/205/123
f 254/127/124 256/126/124 296/207/124 295/206/124
f 256/126/125 258/125/125 297/208/125 296/207/125
f 258/125/126 260/124/126 298/209/126 297/208/126
f 260/124/127 262/123/127 299/210/127 298/209/127
f 262/123/128 264/122/128 300/211/128 299/210/128
f 264/122/129 266/121/129 301/212/129 300/211/129
f 266/121/130 268/120/130 302/213/130 301/212/130
f 268/120/131 270/119/131 303/214/131 302/213/131
f 270/119/132 272/118/132 304/215/132 303/214/132
f 272/118/133 210/117/133 274/185/133 304/215/133
f 305/216/134 306/217/134 308/218/134 307/219/134
f 312/79/135 311/95/135 315/95/135 316/79/135
f 311/95/135 312/79/135 310/220/135 309/221/135
f 309/221/136 310/220/136 306/78/136 305/94/136
f 307/111/137 311/95/137 309/221/137 305/222/137
f 312/79/138 308/63/138 306/223/138 310/220/138
f 314/219/139 313/218/139 316/79/139 315/95/139
f 311/95/140 307/111/140 314/111/140 315/95/140
f 308/63/138 312/79/138 316/79/138 313/63/138
f 307/219/134 308/218/134 313/218/134 314/219/134
o XO3
v -0.225565 -1.607586 -3.881635
v -0.225565 -1.668882 -3.875215
v -0.225565 -1.727823 -3.856200
v -0.225565 -1.782143 -3.825321
v -0.225565 -1.829754 -3.783765
v -0.225565 -1.868828 -3.733129
v -0.225565 -1.897863 -3.675359
v -0.225565 -1.915742 -3.612675
v -0.225565 -1.921779 -3.547485
v -0.225565 -1.915742 -3.482296
v -0.225565 -1.897863 -3.419612
v -0.225565 -1.868828 -3.361841
v -0.225565 -1.829754 -3.311206
v -0.225565 -1.782143 -3.269650
v -0.225565 -1.727823 -3.238771
v -0.225565 -1.668882 -3.219756
v -0.225565 -1.607586 -3.213335
v -0.225565 -1.546290 -3.219756
v -0.225565 -1.487350 -3.238771
v -0.225565 -1.433030 -3.269650
v -0.225565 -1.385418 -3.311206
v -0.225565 -1.346344 -3.361841
v -0.225565 -1.317309 -3.419612
v -0.225565 -1.299430 -3.482296
v -0.225565 -1.293393 -3.547485
v -0.225565 -1.299430 -3.612675
v -0.225565 -1.317309 -3.675359
v -0.225565 -1.346344 -3.733129
v -0.225565 -1.385418 -3.783765
v -0.225565 -1.433030 -3.825321
v -0.225565 -1.487350 -3.856200
v -0.225565 -1.546290 -3.875215
v -0.794042 -1.607586 -3.881635
v -0.794042 -1.668882 -3.875215
v -0.794042 -1.727823 -3.856200
v -0.794042 -1.782143 -3.825321
v -0.794042 -1.829754 -3.783765
v -0.794042 -1.868828 -3.733129
v -0.794042 -1.897863 -3.675359
v -0.794042 -1.915742 -3.612675
v -0.794042 -1.921780 -3.547485
v -0.794042 -1.915742 -3.482296
v -0.794042 -1.897863 -3.419612
v -0.794042 -1.868828 -3.361841
v -0.794042 -1.829754 -3.311206
v -0.794042 -1.782143 -3.269650
v -0.794042 -1.727823 -3.238771
v -0.794042 -1.668882 -3.219756
v -0.794042 -1.607586 -3.213335
v -0.794043 -1.546290 -3.219756
v -0.794043 -1.487350 -3.238771
v -0.794043 -1.433030 -3.269650
v -0.794043 -1.385418 -3.311206
v -0.794043 -1.346344 -3.361841
v -0.794043 -1.317309 -3.419612
v -0.794043 -1.299430 -3.482296
v -0.794043 -1.293393 -3.547485
v -0.794043 -1.299430 -3.612675
v -0.794043 -1.317309 -3.675359
v -0.794043 -1.346344 -3.733129
v -0.794043 -1.385418 -3.783765
v -0.794043 -1.433030 -3.825321
v -0.794043 -1.487350 -3.856200
v -0.794043 -1.546290 -3.875215
v -0.515233 1.135992 -3.325799
v -0.515186 -2.156886 -3.324872
v -0.471814 1.135988 -3.330052
v -0.471767 -2.156891 -3.329124
v -0.430059 1.135966 -3.342693
v -0.430012 -2.156912 -3.341765
v -0.391573 1.135927 -3.363237
v -0.391526 -2.156951 -3.362309
v -0.357834 1.135874 -3.390894
v -0.357787 -2.157005 -3.389966
v -0.330139 1.135806 -3.424603
v -0.330092 -2.157073 -3.423675
v -0.309553 1.135728 -3.463066
v -0.309505 -2.157151 -3.462138
v -0.296866 1.135643 -3.504807
v -0.296818 -2.157236 -3.503879
v -0.292566 1.135552 -3.548221
v -0.292518 -2.157326 -3.547293
v -0.296818 1.135461 -3.591639
v -0.296770 -2.157417 -3.590711
v -0.309459 1.135373 -3.633394
v -0.309412 -2.157506 -3.632466
v -0.330003 1.135291 -3.671880
v -0.329956 -2.157588 -3.670952
v -0.357661 1.135217 -3.705619
v -0.357613 -2.157661 -3.704691
v -0.391369 1.135156 -3.733314
v -0.391322 -2.157723 -3.732386
v -0.429833 1.135109 -3.753901
v -0.429785 -2.157770 -3.752973
v -0.471573 1.135078 -3.766587
v -0.471526 -2.157801 -3.765660
v -0.514987 1.135064 -3.770888
v -0.514940 -2.157815 -3.769960
v -0.558406 1.135069 -3.766635
v -0.558359 -2.157810 -3.765707
v -0.600161 1.135091 -3.753994
v -0.600114 -2.157788 -3.753067
v -0.638647 1.135129 -3.733450
v -0.638600 -2.157749 -3.732522
v -0.672386 1.135183 -3.705793
v -0.672339 -2.157695 -3.704865
v -0.700081 1.135251 -3.672084
v -0.700034 -2.157628 -3.671156
v -0.720667 1.135329 -3.633621
v -0.720620 -2.157550 -3.632693
v -0.733355 1.135414 -3.591880
v -0.733307 -2.157465 -3.590952
v -0.737655 1.135504 -3.548466
v -0.737607 -2.157374 -3.547538
v -0.733402 1.135595 -3.505048
v -0.733355 -2.157283 -3.504120
v -0.720761 1.135684 -3.463293
v -0.720714 -2.157195 -3.462365
v -0.700217 1.135766 -3.424807
v -0.700170 -2.157113 -3.423879
v -0.672560 1.135840 -3.391068
v -0.672512 -2.157039 -3.390140
v -0.638851 1.135901 -3.363373
v -0.638804 -2.156978 -3.362445
v -0.600388 1.135948 -3.342787
v -0.600340 -2.156931 -3.341859
v -0.558647 1.135979 -3.330100
v -0.558599 -2.156900 -3.329172
v -0.085623 1.339198 -4.019711
v -0.085623 1.252573 -4.010637
v -0.085623 1.169278 -3.983765
v -0.085623 1.092512 -3.940127
v -0.085623 1.025226 -3.881399
v -0.085623 0.970006 -3.809840
v -0.085623 0.928974 -3.728198
v -0.085623 0.903707 -3.639612
v -0.085623 0.895175 -3.547485
v -0.085623 0.903707 -3.455358
v -0.085623 0.928974 -3.366772
v -0.085623 0.970006 -3.285130
v -0.085623 1.025226 -3.213571
v -0.085623 1.092512 -3.154844
v -0.085623 1.169278 -3.111205
v -0.085623 1.252573 -3.084333
v -0.085623 1.339198 -3.075259
v -0.085623 1.425822 -3.084333
v -0.085623 1.509118 -3.111205
v -0.085623 1.585884 -3.154844
v -0.085623 1.653170 -3.213571
v -0.085623 1.708390 -3.285130
v -0.085623 1.749422 -3.366772
v -0.085623 1.774689 -3.455358
v -0.085623 1.783221 -3.547485
v -0.085623 1.774689 -3.639612
v -0.085623 1.749422 -3.728198
v -0.085623 1.708390 -3.809840
v -0.085623 1.653170 -3.881399
v -0.085623 1.585884 -3.940127
v -0.085623 1.509118 -3.983765
v -0.085623 1.425822 -4.010637
v -0.889004 1.339198 -4.019711
v -0.889004 1.252573 -4.010637
v -0.889004 1.169278 -3.983765
v -0.889004 1.092512 -3.940127
v -0.889004 1.025226 -3.881399
v -0.889004 0.970006 -3.809840
v -0.889004 0.928974 -3.728198
v -0.889004 0.903707 -3.639612
v -0.889004 0.895175 -3.547485
v -0.889004 0.903707 -3.455358
v -0.889004 0.928974 -3.366772
v -0.889004 0.970006 -3.285130
v -0.889004 1.025226 -3.213571
v -0.889004 1.092512 -3.154844
v -0.889004 1.169278 -3.111205
v -0.889004 1.252573 -3.084333
v -0.889004 1.339198 -3.075259
v -0.889004 1.425822 -3.084333
v -0.889004 1.509118 -3.111205
v -0.889004 1.585884 -3.154844
v -0.889004 1.653170 -3.213571
v -0.889004 1.708390 -3.285130
v -0.889004 1.749422 -3.366772
v -0.889004 1.774689 -3.455358
v -0.889004 1.783221 -3.547485
v -0.889004 1.774689 -3.639612
v -0.889004 1.749422 -3.728198
v -0.889004 1.708390 -3.809840
v -0.889004 1.653170 -3.881399
v -0.889004 1.585884 -3.940127
v -0.889004 1.509118 -3.983765
v -0.889004 1.425822 -4.010637
vn -0.0000 -0.1042 -0.9946
vn -0.0000 -0.3070 -0.9517
vn -0.0000 -0.4942 -0.8694
vn -0.0000 -0.6576 -0.7534
vn -0.0000 -0.7917 -0.6109
vn -0.0000 -0.8935 -0.4491
vn -0.0000 -0.9616 -0.2743
vn -0.0000 -0.9957 -0.0922
vn -0.0000 -0.9957 0.0922
vn -0.0000 -0.9616 0.2743
vn -0.0000 -0.8935 0.4491
vn -0.0000 -0.7917 0.6109
vn -0.0000 -0.6576 0.7534
vn -0.0000 -0.4942 0.8694
vn -0.0000 -0.3070 0.9517
vn -0.0000 -0.1042 0.9946
vn -0.0000 0.1042 0.9946
vn -0.0000 0.3070 0.9517
vn -0.0000 0.4942 0.8694
vn -0.0000 0.6576 0.7534
vn -0.0000 0.7917 0.6109
vn -0.0000 0.8935 0.4491
vn -0.0000 0.9616 0.2743
vn -0.0000 0.9957 0.0922
vn -0.0000 0.9957 -0.0922
vn -0.0000 0.9616 -0.2743
vn -0.0000 0.8935 -0.4491
vn -0.0000 0.7917 -0.6109
vn -0.0000 0.6576 -0.7534
vn -0.0000 0.4942 -0.8694
vn 1.0000 -0.0000 -0.0000
vn -0.0000 0.3070 -0.9517
vn -0.0000 0.1042 -0.9946
vn -1.0000 -0.0000 -0.0000
vn 0.0975 0.0003 0.9952
vn 0.2898 0.0003 0.9571
vn 0.4709 0.0003 0.8822
vn 0.6340 0.0002 0.7734
vn 0.7727 0.0002 0.6348
vn 0.8817 0.0001 0.4719
vn 0.9568 0.0001 0.2908
vn 0.9951 -0.0000 0.0986
vn 0.9952 -0.0000 -0.0975
vn 0.9571 -0.0001 -0.2898
vn 0.8822 -0.0001 -0.4709
vn 0.7734 -0.0002 -0.6340
vn 0.6348 -0.0002 -0.7727
vn 0.4719 -0.0002 -0.8817
vn 0.2908 -0.0003 -0.9568
vn 0.0986 -0.0003 -0.9951
vn -0.0975 -0.0003 -0.9952
vn -0.2898 -0.0003 -0.9571
vn -0.4709 -0.0003 -0.8822
vn -0.6340 -0.0002 -0.7734
vn -0.7727 -0.0002 -0.6348
vn -0.8817 -0.0001 -0.4719
vn -0.9568 -0.0001 -0.2908
vn -0.9951 -0.0000 -0.0986
vn -0.9952 -0.0000 0.0975
vn -0.9571 0.0001 0.2898
vn -0.8822 0.0001 0.4709
vn -0.7734 0.0002 0.6340
vn -0.6348 0.0002 0.7727
vn -0.4719 0.0002 0.8817
vn 0.0001 -1.0000 0.0021
vn -0.2908 0.0003 0.9568
vn -0.0986 0.0003 0.9951
vn -0.0001 1.0000 -0.0021
vt 1.000000 0.750000
vt 1.000000 1.000000
vt 0.968750 1.000000
vt 0.968750 0.750000
vt 0.937500 1.000000
vt 0.937500 0.750000
vt 0.906250 1.000000
vt 0.906250 0.750000
vt 0.875000 1.000000
vt 0.875000 0.750000
vt 0.843750 1.000000
vt 0.843750 0.750000
vt 0.812500 1.000000
vt 0.812500 0.750000
vt 0.781250 1.000000
vt 0.781250 0.750000
vt 0.750000 1.000000
vt 0.750000 0.750000
vt 0.718750 1.000000
vt 0.718750 0.750000
vt 0.687500 1.000000
vt 0.687500 0.750000
vt 0.656250 1.000000
vt 0.656250 0.750000
vt 0.625000 1.000000
vt 0.625000 0.750000
vt 0.593750 1.000000
vt 0.593750 0.750000
vt 0.562500 1.000000
vt 0.562500 0.750000
vt 0.531250 1.000000
vt 0.531250 0.750000
vt 0.500000 1.000000
vt 0.500000 0.750000
vt 0.468750 1.000000
vt 0.468750 0.750000
vt 0.437500 1.000000
vt 0.437500 0.750000
vt 0.406250 1.000000
vt 0.406250 0.750000
vt 0.375000 1.000000
vt 0.375000 0.750000
vt 0.343750 1.000000
vt 0.343750 0.750000
vt 0.312500 1.000000
vt 0.312500 0.750000
vt 0.281250 1.000000
vt 0.281250 0.750000
vt 0.250000 1.000000
vt 0.250000 0.750000
vt 0.218750 1.000000
vt 0.218750 0.750000
vt 0.187500 1.000000
vt 0.187500 0.750000
vt 0.156250 1.000000
vt 0.156250 0.750000
vt 0.125000 1.000000
vt 0.125000 0.750000
vt 0.093750 1.000000
vt 0.093750 0.750000
vt 0.062500 1.000000
vt 0.062500 0.750000
vt 0.296822 0.485388
vt 0.250000 0.490000
vt 0.203178 0.485388
vt 0.158156 0.471731
vt 0.116663 0.449553
vt 0.080294 0.419706
vt 0.050447 0.383337
vt 0.028269 0.341844
vt 0.014612 0.296822
vt 0.010000 0.250000
vt 0.014612 0.203178
vt 0.028269 0.158156
vt 0.050447 0.116663
vt 0.080294 0.080294
vt 0.116663 0.050447
vt 0.158156 0.028269
vt 0.203178 0.014612
vt 0.250000 0.010000
vt 0.296822 0.014612
vt 0.341844 0.028269
vt 0.383337 0.050447
vt 0.419706 0.080294
vt 0.449553 0.116663
vt 0.471731 0.158156
vt 0.485388 0.203178
vt 0.490000 0.250000
vt 0.485388 0.296822
vt 0.471731 0.341844
vt 0.449553 0.383337
vt 0.419706 0.419706
vt 0.383337 0.449553
vt 0.341844 0.471731
vt 0.031250 1.000000
vt 0.031250 0.750000
vt 0.000000 1.000000
vt 0.000000 0.750000
vt 1.000000 0.500000
vt 0.968750 0.500000
vt 0.937500 0.500000
vt 0.906250 0.500000
vt 0.875000 0.500000
vt 0.843750 0.500000
vt 0.812500 0.500000
vt 0.781250 0.500000
vt 0.750000 0.500000
vt 0.718750 0.500000
vt 0.687500 0.500000
vt 0.656250 0.500000
vt 0.625000 0.500000
vt 0.593750 0.500000
vt 0.562500 0.500000
vt 0.531250 0.500000
vt 0.500000 0.500000
vt 0.468750 0.500000
vt 0.437500 0.500000
vt 0.406250 0.500000
vt 0.375000 0.500000
vt 0.343750 0.500000
vt 0.312500 0.500000
vt 0.281250 0.500000
vt 0.250000 0.500000
vt 0.218750 0.500000
vt 0.187500 0.500000
vt 0.156250 0.500000
vt 0.125000 0.500000
vt 0.093750 0.500000
vt 0.062500 0.500000
vt 0.031250 0.500000
vt 0.000000 0.500000
vt 0.750000 0.490000
vt 0.796822 0.485388
vt 0.841844 0.471731
vt 0.883337 0.449553
vt 0.919706 0.419706
vt 0.949553 0.383337
vt 0.971731 0.341844
vt 0.985388 0.296822
vt 0.990000 0.250000
vt 0.985388 0.203178
vt 0.971731 0.158156
vt 0.949553 0.116663
vt 0.919706 0.080294
vt 0.883337 0.050447
vt 0.841844 0.028269
vt 0.796822 0.014612
vt 0.750000 0.010000
vt 0.703178 0.014612
vt 0.658156 0.028269
vt 0.616663 0.050447
vt 0.580294 0.080294
vt 0.550447 0.116663
vt 0.528269 0.158156
vt 0.514612 0.203178
vt 0.510000 0.250000
vt 0.514612 0.296822
vt 0.528269 0.341844
vt 0.550447 0.383337
vt 0.580294 0.419706
vt 0.616663 0.449553
vt 0.658156 0.471731
vt 0.703178 0.485388
s 0
f 349/224/141 317/225/141 318/226/141 350/227/141
f 350/227/142 318/226/142 319/228/142 351/229/142
f 351/229/143 319/228/143 320/230/143 352/231/143
f 352/231/144 320/230/144 321/232/144 353/233/144
f 353/233/145 321/232/145 322/234/145 354/235/145
f 354/235/146 322/234/146 323/236/146 355/237/146
f 355/237/147 323/236/147 324/238/147 356/239/147
f 356/239/148 324/238/148 325/240/148 357/241/148
f 357/241/149 325/240/149 326/242/149 358/243/149
f 358/243/150 326/242/150 327/244/150 359/245/150
f 359/245/151 327/244/151 328/246/151 360/247/151
f 360/247/152 328/246/152 329/248/152 361/249/152
f 361/249/153 329/248/153 330/250/153 362/251/153
f 362/251/154 330/250/154 331/252/154 363/253/154
f 363/253/155 331/252/155 332/254/155 364/255/155
f 364/255/156 332/254/156 333/256/156 365/257/156
f 365/257/157 333/256/157 334/258/157 366/259/157
f 366/259/158 334/258/158 335/260/158 367/261/158
f 367/261/159 335/260/159 336/262/159 368/263/159
f 368/263/160 336/262/160 337/264/160 369/265/160
f 369/265/161 337/264/161 338/266/161 370/267/161
f 370/267/162 338/266/162 339/268/162 371/269/162
f 371/269/163 339/268/163 340/270/163 372/271/163
f 372/271/164 340/270/164 341/272/164 373/273/164
f 373/273/165 341/272/165 342/274/165 374/275/165
f 374/275/166 342/274/166 343/276/166 375/277/166
f 375/277/167 343/276/167 344/278/167 376/279/167
f 376/279/168 344/278/168 345/280/168 377/281/168
f 377/281/169 345/280/169 346/282/169 378/283/169
f 378/283/170 346/282/170 347/284/170 379/285/170
f 318/286/171 317/287/171 348/288/171 347/289/171 346/290/171 345/291/171 344/292/171 343/293/171 342/294/171 341/295/171 340/296/171 339/297/171 338/298/171 337/299/171 336/300/171 335/301/171 334/302/171 333/303/171 332/304/171 331/305/171 330/306/171 329/307/171 328/308/171 327/309/171 326/310/171 325/311/171 324/312/171 323/313/171 322/314/171 321/315/171 320/316/171 319/317/171
f 379/285/172 347/284/172 348/318/172 380/319/172
f 380/319/173 348/318/173 317/320/173 349/321/173
f 380/319/174 349/224/174 350/227/174 351/229/174 352/231/174 353/233/174 354/235/174 355/237/174 356/239/174 357/241/174 358/243/174 359/245/174 360/247/174 361/249/174 362/251/174 363/253/174 364/255/174 365/257/174 366/259/174 367/261/174 368/263/174 369/265/174 370/267/174 371/269/174 372/271/174 373/273/174 374/275/174 375/277/174 376/279/174 377/281/174 378/283/174 379/285/174
f 381/322/175 382/225/175 384/226/175 383/323/175
f 383/323/176 384/226/176 386/228/176 385/324/176
f 385/324/177 386/228/177 388/230/177 387/325/177
f 387/325/178 388/230/178 390/232/178 389/326/178
f 389/326/179 390/232/179 392/234/179 391/327/179
f 391/327/180 392/234/180 394/236/180 393/328/180
f 393/328/181 394/236/181 396/238/181 395/329/181
f 395/329/182 396/238/182 398/240/182 397/330/182
f 397/330/183 398/240/183 400/242/183 399/331/183
f 399/331/184 400/242/184 402/244/184 401/332/184
f 401/332/185 402/244/185 404/246/185 403/333/185
f 403/333/186 404/246/186 406/248/186 405/334/186
f 405/334/187 406/248/187 408/250/187 407/335/187
f 407/335/188 408/250/188 410/252/188 409/336/188
f 409/336/189 410/252/189 412/254/189 411/337/189
f 411/337/190 412/254/190 414/256/190 413/338/190
f 413/338/191 414/256/191 416/258/191 415/339/191
f 415/339/192 416/258/192 418/260/192 417/340/192
f 417/340/193 418/260/193 420/262/193 419/341/193
f 419/341/194 420/262/194 422/264/194 421/342/194
f 421/342/195 422/264/195 424/266/195 423/343/195
f 423/343/196 424/266/196 426/268/196 425/344/196
f 425/344/197 426/268/197 428/270/197 427/345/197
f 427/345/198 428/270/198 430/272/198 429/346/198
f 429/346/199 430/272/199 432/274/199 431/347/199
f 431/347/200 432/274/200 434/276/200 433/348/200
f 433/348/201 434/276/201 436/278/201 435/349/201
f 435/349/202 436/278/202 438/280/202 437/350/202
f 437/350/203 438/280/203 440/282/203 439/351/203
f 439/351/204 440/282/204 442/284/204 441/352/204
f 384/286/205 382/287/205 444/288/205 442/289/205 440/290/205 438/291/205 436/292/205 434/293/205 432/294/205 430/295/205 428/296/205 426/297/205 424/298/205 422/299/205 420/300/205 418/301/205 416/302/205 414/303/205 412/304/205 410/305/205 408/306/205 406/307/205 404/308/205 402/309/205 400/310/205 398/311/205 396/312/205 394/313/205 392/314/205 390/315/205 388/316/205 386/317/205
f 441/352/206 442/284/206 444/318/206 443/353/206
f 443/353/207 444/318/207 382/320/207 381/354/207
f 381/355/208 383/356/208 385/357/208 387/358/208 389/359/208 391/360/208 393/361/208 395/362/208 397/363/208 399/364/208 401/365/208 403/366/208 405/367/208 407/368/208 409/369/208 411/370/208 413/371/208 415/372/208 417/373/208 419/374/208 421/375/208 423/376/208 425/377/208 427/378/208 429/379/208 431/380/208 433/381/208 435/382/208 437/383/208 439/384/208 441/385/208 443/386/208
f 477/224/141 445/225/141 446/226/141 478/227/141
f 478/227/142 446/226/142 447/228/142 479/229/142
f 479/229/143 447/228/143 448/230/143 480/231/143
f 480/231/144 448/230/144 449/232/144 481/233/144
f 481/233/145 449/232/145 450/234/145 482/235/145
f 482/235/146 450/234/146 451/236/146 483/237/146
f 483/237/147 451/236/147 452/238/147 484/239/147
f 484/239/148 452/238/148 453/240/148 485/241/148
f 485/241/149 453/240/149 454/242/149 486/243/149
f 486/243/150 454/242/150 455/244/150 487/245/150
f 487/245/151 455/244/151 456/246/151 488/247/151
f 488/247/152 456/246/152 457/248/152 489/249/152
f 489/249/153 457/248/153 458/250/153 490/251/153
f 490/251/154 458/250/154 459/252/154 491/253/154
f 491/253/155 459/252/155 460/254/155 492/255/155
f 492/255/156 460/254/156 461/256/156 493/257/156
f 493/257/157 461/256/157 462/258/157 494/259/157
f 494/259/158 462/258/158 463/260/158 495/261/158
f 495/261/159 463/260/159 464/262/159 496/263/159
f 496/263/160 464/262/160 465/264/160 497/265/160
f 497/265/161 465/264/161 466/266/161 498/267/161
f 498/267/162 466/266/162 467/268/162 499/269/162
f 499/269/163 467/268/163 468/270/163 500/271/163
f 500/271/164 468/270/164 469/272/164 501/273/164
f 501/273/165 469/272/165 470/274/165 502/275/165
f 502/275/166 470/274/166 471/276/166 503/277/166
f 503/277/167 471/276/167 472/278/167 504/279/167
f 504/279/168 472/278/168 473/280/168 505/281/168
f 505/281/169 473/280/169 474/282/169 506/283/169
f 506/283/170 474/282/170 475/284/170 507/285/170
f 446/286/171 445/287/171 476/288/171 475/289/171 474/290/171 473/291/171 472/292/171 471/293/171 470/294/171 469/295/171 468/296/171 467/297/171 466/298/171 465/299/171 464/300/171 463/301/171 462/302/171 461/303/171 460/304/171 459/305/171 458/306/171 457/307/171 456/308/171 455/309/171 454/310/171 453/311/171 452/312/171 451/313/171 450/314/171 449/315/171 448/316/171 447/317/171
f 507/285/172 475/284/172 476/318/172 508/319/172
f 508/319/173 476/318/173 445/320/173 477/321/173
f 508/319/174 477/224/174 478/227/174 479/229/174 480/231/174 481/233/174 482/235/174 483/237/174 484/239/174 485/241/174 486/243/174 487/245/174 488/247/174 489/249/174 490/251/174 491/253/174 492/255/174 493/257/174 494/259/174 495/261/174 496/263/174 497/265/174 498/267/174 499/269/174 500/271/174 501/273/174 502/275/174 503/277/174 504/279/174 505/281/174 506/283/174 507/285/174
o XO2
v -1.133565 1.339200 -1.768737
v 1.133565 1.339200 -1.768737
v -1.133565 1.252575 -1.759663
v 1.133565 1.252576 -1.759663
v -1.133565 1.169280 -1.732791
v 1.133565 1.169280 -1.732791
v -1.133565 1.092514 -1.689152
v 1.133565 1.092514 -1.689152
v -1.133565 1.025228 -1.630425
v 1.133565 1.025229 -1.630425
v -1.133565 0.970008 -1.558865
v 1.133565 0.970009 -1.558865
v -1.133565 0.928976 -1.477224
v 1.133565 0.928976 -1.477224
v -1.133565 0.903709 -1.388637
v 1.133565 0.903709 -1.388637
v -1.133565 0.895177 -1.296511
v 1.133565 0.895177 -1.296511
v -1.133565 0.903709 -1.204384
v 1.133565 0.903709 -1.204384
v -1.133565 0.928976 -1.115798
v 1.133565 0.928976 -1.115798
v -1.133565 0.970008 -1.034156
v 1.133565 0.970009 -1.034156
v -1.133565 1.025228 -0.962596
v 1.133565 1.025229 -0.962596
v -1.133565 1.092514 -0.903869
v 1.133565 1.092514 -0.903869
v -1.133565 1.169280 -0.860231
v 1.133565 1.169280 -0.860231
v -1.133565 1.252575 -0.833358
v 1.133565 1.252576 -0.833358
v -1.133565 1.339200 -0.824285
v 1.133565 1.339200 -0.824285
v -1.133565 1.425825 -0.833358
v 1.133565 1.425825 -0.833358
v -1.133565 1.509120 -0.860231
v 1.133565 1.509120 -0.860231
v -1.133565 1.585886 -0.903869
v 1.133565 1.585886 -0.903869
v -1.133565 1.653172 -0.962596
v 1.133565 1.653172 -0.962596
v -1.133565 1.708391 -1.034156
v 1.133565 1.708392 -1.034156
v -1.133565 1.749424 -1.115798
v 1.133565 1.749424 -1.115798
v -1.133565 1.774691 -1.204384
v 1.133565 1.774691 -1.204384
v -1.133565 1.783223 -1.296511
v 1.133565 1.783223 -1.296511
v -1.133565 1.774691 -1.388637
v 1.133565 1.774691 -1.388637
v -1.133565 1.749424 -1.477224
v 1.133565 1.749424 -1.477224
v -1.133565 1.708391 -1.558865
v 1.133565 1.708392 -1.558865
v -1.133565 1.653172 -1.630425
v 1.133565 1.653172 -1.630425
v -1.133565 1.585886 -1.689152
v 1.133565 1.585886 -1.689152
v -1.133565 1.509120 -1.732791
v 1.133565 1.509120 -1.732791
v -1.133565 1.425825 -1.759663
v 1.133565 1.425825 -1.759663
v 0.767561 1.339200 -4.022030
v 0.767561 1.252576 -4.012956
v 0.767561 1.169280 -3.986084
v 0.767561 1.092514 -3.942445
v 0.767561 1.025229 -3.883718
v 0.767561 0.970009 -3.812158
v 0.767561 0.928976 -3.730517
v 0.767561 0.903709 -3.641930
v 0.767561 0.895177 -3.549804
v 0.767561 0.903709 -3.457677
v 0.767561 0.928976 -3.369091
v 0.767561 0.970009 -3.287449
v 0.767561 1.025229 -3.215889
v 0.767561 1.092514 -3.157162
v 0.767561 1.169280 -3.113523
v 0.767561 1.252576 -3.086651
v 0.767561 1.339200 -3.077578
v 0.767561 1.425825 -3.086651
v 0.767561 1.509120 -3.113523
v 0.767561 1.585886 -3.157162
v 0.767561 1.653172 -3.215889
v 0.767561 1.708392 -3.287449
v 0.767561 1.749424 -3.369091
v 0.767561 1.774691 -3.457677
v 0.767561 1.783223 -3.549804
v 0.767561 1.774691 -3.641930
v 0.767561 1.749424 -3.730517
v 0.767561 1.708392 -3.812158
v 0.767561 1.653172 -3.883718
v 0.767561 1.585886 -3.942445
v 0.767561 1.509120 -3.986084
v 0.767561 1.425825 -4.012956
v -0.116220 1.339200 -4.022030
v -0.116220 1.252576 -4.012956
v -0.116220 1.169280 -3.986084
v -0.116220 1.092514 -3.942445
v -0.116220 1.025229 -3.883718
v -0.116220 0.970008 -3.812158
v -0.116220 0.928976 -3.730517
v -0.116220 0.903709 -3.641930
v -0.116220 0.895177 -3.549804
v -0.116220 0.903709 -3.457677
v -0.116220 0.928976 -3.369091
v -0.116220 0.970008 -3.287449
v -0.116220 1.025229 -3.215889
v -0.116220 1.092514 -3.157162
v -0.116220 1.169280 -3.113523
v -0.116220 1.252576 -3.086651
v -0.116220 1.339200 -3.077578
v -0.116220 1.425825 -3.086651
v -0.116220 1.509120 -3.113523
v -0.116220 1.585886 -3.157162
v -0.116220 1.653172 -3.215889
v -0.116220 1.708392 -3.287449
v -0.116220 1.749424 -3.369091
v -0.116220 1.774691 -3.457677
v -0.116220 1.783223 -3.549804
v -0.116220 1.774691 -3.641930
v -0.116220 1.749424 -3.730517
v -0.116220 1.708392 -3.812158
v -0.116220 1.653172 -3.883718
v -0.116220 1.585886 -3.942445
v -0.116220 1.509120 -3.986084
v -0.116220 1.425825 -4.012956
v 1.000000 0.937024 -1.479660
v 1.000000 1.744587 -1.479660
v 0.763163 1.105939 -3.473050
v 0.763163 1.595832 -3.473050
v 0.236837 1.105939 -3.473050
v 0.236837 1.595832 -3.473050
v 0.000000 0.937024 -1.479660
v 0.000000 1.744587 -1.479660
v 0.763163 1.105939 -1.942962
v 0.763163 1.595832 -1.942962
v 0.236837 1.595832 -1.942962
v 0.236837 1.105939 -1.942962
v 0.994867 1.647457 -1.770871
v 0.000468 1.647457 -1.760741
v 0.000468 1.046504 -1.760741
v 0.994867 1.046504 -1.770871
v 0.997150 1.709268 -1.563601
v -0.000998 1.709268 -1.557977
v -0.000998 0.980369 -1.557977
v 0.997150 0.980369 -1.563601
vn -0.0000 -0.1042 -0.9946
vn -0.0000 -0.3070 -0.9517
vn -0.0000 -0.4942 -0.8694
vn -0.0000 -0.6576 -0.7534
vn -0.0000 -0.7917 -0.6109
vn -0.0000 -0.8935 -0.4491
vn -0.0000 -0.9616 -0.2743
vn -0.0000 -0.9957 -0.0922
vn -0.0000 -0.9957 0.0922
vn -0.0000 -0.9616 0.2743
vn -0.0000 -0.8935 0.4491
vn -0.0000 -0.7917 0.6109
vn -0.0000 -0.6576 0.7534
vn -0.0000 -0.4942 0.8694
vn -0.0000 -0.3070 0.9517
vn -0.0000 -0.1042 0.9946
vn -0.0000 0.1042 0.9946
vn -0.0000 0.3070 0.9517
vn -0.0000 0.4942 0.8694
vn -0.0000 0.6576 0.7534
vn -0.0000 0.7917 0.6109
vn -0.0000 0.8935 0.4491
vn -0.0000 0.9616 0.2743
vn -0.0000 0.9957 0.0922
vn -0.0000 0.9957 -0.0922
vn -0.0000 0.9616 -0.2743
vn -0.0000 0.8935 -0.4491
vn -0.0000 0.7917 -0.6109
vn -0.0000 0.6576 -0.7534
vn -0.0000 0.4942 -0.8694
vn 1.0000 -0.0000 -0.0000
vn -0.0000 0.3070 -0.9517
vn -0.0000 0.1042 -0.9946
vn -1.0000 -0.0000 -0.0000
vn -0.0000 -0.0000 -1.0000
vn 0.9994 -0.0000 -0.0339
vn -0.0013 -0.8820 -0.4712
vn -0.0011 0.9169 -0.3991
vn -0.0000 -0.0000 1.0000
vn -0.6105 -0.0000 -0.7920
vn -0.0000 1.0000 -0.0000
vn -0.0000 -1.0000 -0.0000
vn -1.0000 -0.0000 -0.0072
vn -0.0019 0.9601 -0.2798
vn -0.0021 -0.9481 -0.3181
vn 0.5963 -0.0000 -0.8028
vn -0.9999 -0.0000 0.0127
vn -0.0023 0.9574 -0.2887
vn -0.0024 -0.9517 -0.3070
vn 0.9999 -0.0000 -0.0110
vt 1.000000 0.500000
vt 1.000000 1.000000
vt 0.968750 1.000000
vt 0.968750 0.500000
vt 0.937500 1.000000
vt 0.937500 0.500000
vt 0.906250 1.000000
vt 0.906250 0.500000
vt 0.875000 1.000000
vt 0.875000 0.500000
vt 0.843750 1.000000
vt 0.843750 0.500000
vt 0.812500 1.000000
vt 0.812500 0.500000
vt 0.781250 1.000000
vt 0.781250 0.500000
vt 0.750000 1.000000
vt 0.750000 0.500000
vt 0.718750 1.000000
vt 0.718750 0.500000
vt 0.687500 1.000000
vt 0.687500 0.500000
vt 0.656250 1.000000
vt 0.656250 0.500000
vt 0.625000 1.000000
vt 0.625000 0.500000
vt 0.593750 1.000000
vt 0.593750 0.500000
vt 0.562500 1.000000
vt 0.562500 0.500000
vt 0.531250 1.000000
vt 0.531250 0.500000
vt 0.500000 1.000000
vt 0.500000 0.500000
vt 0.468750 1.000000
vt 0.468750 0.500000
vt 0.437500 1.000000
vt 0.437500 0.500000
vt 0.406250 1.000000
vt 0.406250 0.500000
vt 0.375000 1.000000
vt 0.375000 0.500000
vt 0.343750 1.000000
vt 0.343750 0.500000
vt 0.312500 1.000000
vt 0.312500 0.500000
vt 0.281250 1.000000
vt 0.281250 0.500000
vt 0.250000 1.000000
vt 0.250000 0.500000
vt 0.218750 1.000000
vt 0.218750 0.500000
vt 0.187500 1.000000
vt 0.187500 0.500000
vt 0.156250 1.000000
vt 0.156250 0.500000
vt 0.125000 1.000000
vt 0.125000 0.500000
vt 0.093750 1.000000
vt 0.093750 0.500000
vt 0.062500 1.000000
vt 0.062500 0.500000
vt 0.296822 0.485388
vt 0.250000 0.490000
vt 0.203178 0.485388
vt 0.158156 0.471731
vt 0.116663 0.449553
vt 0.080294 0.419706
vt 0.050447 0.383337
vt 0.028269 0.341844
vt 0.014612 0.296822
vt 0.010000 0.250000
vt 0.014612 0.203178
vt 0.028269 0.158156
vt 0.050447 0.116663
vt 0.080294 0.080294
vt 0.116663 0.050447
vt 0.158156 0.028269
vt 0.203178 0.014612
vt 0.250000 0.010000
vt 0.296822 0.014612
vt 0.341844 0.028269
vt 0.383337 0.050447
vt 0.419706 0.080294
vt 0.449553 0.116663
vt 0.471731 0.158156
vt 0.485388 0.203178
vt 0.490000 0.250000
vt 0.485388 0.296822
vt 0.471731 0.341844
vt 0.449553 0.383337
vt 0.419706 0.419706
vt 0.383337 0.449553
vt 0.341844 0.471731
vt 0.031250 1.000000
vt 0.031250 0.500000
vt 0.000000 1.000000
vt 0.000000 0.500000
vt 0.750000 0.490000
vt 0.796822 0.485388
vt 0.841844 0.471731
vt 0.883337 0.449553
vt 0.919706 0.419706
vt 0.949553 0.383337
vt 0.971731 0.341844
vt 0.985388 0.296822
vt 0.990000 0.250000
vt 0.985388 0.203178
vt 0.971731 0.158156
vt 0.949553 0.116663
vt 0.919706 0.080294
vt 0.883337 0.050447
vt 0.841844 0.028269
vt 0.796822 0.014612
vt 0.750000 0.010000
vt 0.703178 0.014612
vt 0.658156 0.028269
vt 0.616663 0.050447
vt 0.580294 0.080294
vt 0.550447 0.116663
vt 0.528269 0.158156
vt 0.514612 0.203178
vt 0.510000 0.250000
vt 0.514612 0.296822
vt 0.528269 0.341844
vt 0.550447 0.383337
vt 0.580294 0.419706
vt 0.616663 0.449553
vt 0.658156 0.471731
vt 0.703178 0.485388
vt 1.000000 0.750000
vt 0.968750 0.750000
vt 0.937500 0.750000
vt 0.906250 0.750000
vt 0.875000 0.750000
vt 0.843750 0.750000
vt 0.812500 0.750000
vt 0.781250 0.750000
vt 0.750000 0.750000
vt 0.718750 0.750000
vt 0.687500 0.750000
vt 0.656250 0.750000
vt 0.625000 0.750000
vt 0.593750 0.750000
vt 0.562500 0.750000
vt 0.531250 0.750000
vt 0.500000 0.750000
vt 0.468750 0.750000
vt 0.437500 0.750000
vt 0.406250 0.750000
vt 0.375000 0.750000
vt 0.343750 0.750000
vt 0.312500 0.750000
vt 0.281250 0.750000
vt 0.250000 0.750000
vt 0.218750 0.750000
vt 0.187500 0.750000
vt 0.156250 0.750000
vt 0.125000 0.750000
vt 0.093750 0.750000
vt 0.062500 0.750000
vt 0.031250 0.750000
vt 0.000000 0.750000
vt 0.375000 0.375000
vt 0.625000 0.375000
vt 0.375000 0.724389
vt 0.625000 0.724389
vt 0.250000 0.724389
vt 0.750000 0.724389
vt 0.625000 0.875000
vt 0.375000 0.875000
vt 0.625000 0.745879
vt 0.342720 0.778159
vt 0.625000 0.782750
vt 0.351938 0.805812
vt 0.750000 0.685440
vt 0.625000 0.685440
vt 0.375000 0.685440
vt 0.250000 0.685440
vt 0.625000 0.823778
vt 0.362195 0.836583
vt 0.750000 0.703875
vt 0.625000 0.703875
vt 0.375000 0.703875
vt 0.250000 0.703875
s 0
f 509/387/209 510/388/209 512/389/209 511/390/209
f 511/390/210 512/389/210 514/391/210 513/392/210
f 513/392/211 514/391/211 516/393/211 515/394/211
f 515/394/212 516/393/212 518/395/212 517/396/212
f 517/396/213 518/395/213 520/397/213 519/398/213
f 519/398/214 520/397/214 522/399/214 521/400/214
f 521/400/215 522/399/215 524/401/215 523/402/215
f 523/402/216 524/401/216 526/403/216 525/404/216
f 525/404/217 526/403/217 528/405/217 527/406/217
f 527/406/218 528/405/218 530/407/218 529/408/218
f 529/408/219 530/407/219 532/409/219 531/410/219
f 531/410/220 532/409/220 534/411/220 533/412/220
f 533/412/221 534/411/221 536/413/221 535/414/221
f 535/414/222 536/413/222 538/415/222 537/416/222
f 537/416/223 538/415/223 540/417/223 539/418/223
f 539/418/224 540/417/224 542/419/224 541/420/224
f 541/420/225 542/419/225 544/421/225 543/422/225
f 543/422/226 544/421/226 546/423/226 545/424/226
f 545/424/227 546/423/227 548/425/227 547/426/227
f 547/426/228 548/425/228 550/427/228 549/428/228
f 549/428/229 550/427/229 552/429/229 551/430/229
f 551/430/230 552/429/230 554/431/230 553/432/230
f 553/432/231 554/431/231 556/433/231 555/434/231
f 555/434/232 556/433/232 558/435/232 557/436/232
f 557/436/233 558/435/233 560/437/233 559/438/233
f 559/438/234 560/437/234 562/439/234 561/440/234
f 561/440/235 562/439/235 564/441/235 563/442/235
f 563/442/236 564/441/236 566/443/236 565/444/236
f 565/444/237 566/443/237 568/445/237 567/446/237
f 567/446/238 568/445/238 570/447/238 569/448/238
f 512/449/239 510/450/239 572/451/239 570/452/239 568/453/239 566/454/239 564/455/239 562/456/239 560/457/239 558/458/239 556/459/239 554/460/239 552/461/239 550/462/239 548/463/239 546/464/239 544/465/239 542/466/239 540/467/239 538/468/239 536/469/239 534/470/239 532/471/239 530/472/239 528/473/239 526/474/239 524/475/239 522/476/239 520/477/239 518/478/239 516/479/239 514/480/239
f 569/448/240 570/447/240 572/481/240 571/482/240
f 571/482/241 572/481/241 510/483/241 509/484/241
f 509/485/242 511/486/242 513/487/242 515/488/242 517/489/242 519/490/242 521/491/242 523/492/242 525/493/242 527/494/242 529/495/242 531/496/242 533/497/242 535/498/242 537/499/242 539/500/242 541/501/242 543/502/242 545/503/242 547/504/242 549/505/242 551/506/242 553/507/242 555/508/242 557/509/242 559/510/242 561/511/242 563/512/242 565/513/242 567/514/242 569/515/242 571/516/242
f 605/517/209 573/388/209 574/389/209 606/518/209
f 606/518/210 574/389/210 575/391/210 607/519/210
f 607/519/211 575/391/211 576/393/211 608/520/211
f 608/520/212 576/393/212 577/395/212 609/521/212
f 609/521/213 577/395/213 578/397/213 610/522/213
f 610/522/214 578/397/214 579/399/214 611/523/214
f 611/523/215 579/399/215 580/401/215 612/524/215
f 612/524/216 580/401/216 581/403/216 613/525/216
f 613/525/217 581/403/217 582/405/217 614/526/217
f 614/526/218 582/405/218 583/407/218 615/527/218
f 615/527/219 583/407/219 584/409/219 616/528/219
f 616/528/220 584/409/220 585/411/220 617/529/220
f 617/529/221 585/411/221 586/413/221 618/530/221
f 618/530/222 586/413/222 587/415/222 619/531/222
f 619/531/223 587/415/223 588/417/223 620/532/223
f 620/532/224 588/417/224 589/419/224 621/533/224
f 621/533/225 589/419/225 590/421/225 622/534/225
f 622/534/226 590/421/226 591/423/226 623/535/226
f 623/535/227 591/423/227 592/425/227 624/536/227
f 624/536/228 592/425/228 593/427/228 625/537/228
f 625/537/229 593/427/229 594/429/229 626/538/229
f 626/538/230 594/429/230 595/431/230 627/539/230
f 627/539/231 595/431/231 596/433/231 628/540/231
f 628/540/232 596/433/232 597/435/232 629/541/232
f 629/541/233 597/435/233 598/437/233 630/542/233
f 630/542/234 598/437/234 599/439/234 631/543/234
f 631/543/235 599/439/235 600/441/235 632/544/235
f 632/544/236 600/441/236 601/443/236 633/545/236
f 633/545/237 601/443/237 602/445/237 634/546/237
f 634/546/238 602/445/238 603/447/238 635/547/238
f 574/449/239 573/450/239 604/451/239 603/452/239 602/453/239 601/454/239 600/455/239 599/456/239 598/457/239 597/458/239 596/459/239 595/460/239 594/461/239 593/462/239 592/463/239 591/464/239 590/465/239 589/466/239 588/467/239 587/468/239 586/469/239 585/470/239 584/471/239 583/472/239 582/473/239 581/474/239 580/475/239 579/476/239 578/477/239 577/478/239 576/479/239 575/480/239
f 635/547/240 603/447/240 604/481/240 636/548/240
f 636/548/241 604/481/241 573/483/241 605/549/241
f 636/548/242 605/517/242 606/518/242 607/519/242 608/520/242 609/521/242 610/522/242 611/523/242 612/524/242 613/525/242 614/526/242 615/527/242 616/528/242 617/529/242 618/530/242 619/531/242 620/532/242 621/533/242 622/534/242 623/535/242 624/536/242 625/537/242 626/538/242 627/539/242 628/540/242 629/541/242 630/542/242 631/543/242 632/544/242 633/545/242 634/546/242 635/547/242
f 641/550/243 642/551/243 640/412/243 639/428/243
f 656/552/244 653/553/244 638/529/244 637/537/244
f 655/554/245 656/552/245 637/537/245 643/541/245
f 653/553/246 654/555/246 644/525/246 638/529/246
f 637/537/247 638/529/247 644/556/247 643/557/247
f 647/558/242 642/551/242 641/436/242 648/559/242
f 650/560/248 647/558/248 648/559/248 651/561/248
f 640/412/249 642/404/249 647/562/249 646/563/249
f 641/436/250 639/428/250 645/564/250 648/565/250
f 639/428/239 640/412/239 646/563/239 645/564/239
f 654/566/251 650/560/251 651/561/251 655/567/251
f 646/563/252 647/562/252 650/568/252 649/569/252
f 648/565/253 645/564/253 652/570/253 651/571/253
f 645/564/254 646/563/254 649/569/254 652/570/254
f 644/556/255 654/566/255 655/567/255 643/557/255
f 649/569/256 650/568/256 654/555/256 653/553/256
f 651/571/257 652/570/257 656/552/257 655/554/257
f 652/570/258 649/569/258 653/553/258 656/552/258
